<svg width="125" height="147" viewBox="0 0 125 147" fill="none" xmlns="http://www.w3.org/2000/svg">
<path d="M122 38L63 3L3 38V109.5L63 143.5L122 109.5V38Z" fill="#0062FF" fill-opacity="0.05" stroke="#0062FF" stroke-width="5"/>
<path d="M57.8907 69.3235C57.259 69.9436 57.5216 71.2024 58.4767 72.1363C59.4319 73.0739 60.7144 73.3279 61.3423 72.7116C61.974 72.0915 61.7114 70.8326 60.7562 69.8988C59.8049 68.9649 58.5186 68.7071 57.8907 69.3235Z" fill="#191A1C"/>
<path d="M66.2743 72.1386C67.2269 71.2035 67.4883 69.944 66.8582 69.3255C66.2281 68.707 64.945 68.9636 63.9924 69.8987C63.0398 70.8338 62.7784 72.0932 63.4085 72.7117C64.0386 73.3303 65.3217 73.0736 66.2743 72.1386Z" fill="#191A1C"/>
<path d="M86.4882 51.4074L77.4768 33.5442C74.8662 27.9148 69.0857 24 62.3728 24C55.66 24 49.8794 27.9148 47.2689 33.5442L38.2575 51.4074C36.1797 55.1915 35 59.5246 35 64.1305C35 78.9717 47.2575 91 62.3728 91C77.492 91 89.7457 78.9679 89.7457 64.1305C89.7457 59.5246 88.566 55.1915 86.4882 51.4074ZM75.0755 70.1671C74.6645 70.2493 74.3677 70.6004 74.3677 71.0113C74.3677 77.5522 69.0362 82.9761 62.3728 83.0247C55.7094 82.9761 50.378 77.5522 50.378 71.0113C50.378 70.6004 50.0811 70.2455 49.6701 70.1671C45.4727 69.3341 42.3294 65.6509 42.4207 61.2654C42.5196 56.5512 46.4241 52.6887 51.2266 52.5617C52.901 52.5168 54.4765 52.9203 55.835 53.6524C58.7005 55.1242 60.5462 55.8713 62.3728 55.8937C64.1995 55.8713 66.0451 55.1242 68.9107 53.6524C70.2692 52.9203 71.8485 52.5168 73.5191 52.5617C78.3216 52.6887 82.226 56.5512 82.325 61.2654C82.4201 65.6546 79.273 69.3341 75.0755 70.1671Z" fill="#191A1C"/>
<path d="M51.4888 64.0836C52.9579 64.0836 54.1488 62.9145 54.1488 61.4724C54.1488 60.0304 52.9579 58.8613 51.4888 58.8613C50.0197 58.8613 48.8287 60.0304 48.8287 61.4724C48.8287 62.9145 50.0197 64.0836 51.4888 64.0836Z" fill="#191A1C"/>
<path d="M73.2564 64.0836C74.7255 64.0836 75.9164 62.9145 75.9164 61.4724C75.9164 60.0304 74.7255 58.8613 73.2564 58.8613C71.7873 58.8613 70.5964 60.0304 70.5964 61.4724C70.5964 62.9145 71.7873 64.0836 73.2564 64.0836Z" fill="#191A1C"/>
<path d="M64.8424 66.4588C64.1194 66.7427 63.267 66.8921 62.3727 66.8921C61.4784 66.8921 60.626 66.7427 59.9029 66.4588C58.0344 65.7229 55.9376 66.3318 54.9139 67.9044C54.5448 68.4722 54.3583 69.0736 54.3583 69.6937C54.3583 69.9813 54.5981 70.2167 54.8911 70.2167C55.1841 70.2167 55.4239 69.9813 55.4239 69.6937C55.4239 69.2753 55.5533 68.8607 55.812 68.4647C56.5579 67.3142 58.1143 66.8771 59.5072 67.4263C60.352 67.7587 61.3452 67.9343 62.3727 67.9343C63.4002 67.9343 64.3934 67.7587 65.2382 67.4263C66.631 66.8771 68.1875 67.3142 68.9333 68.4647C69.1921 68.8607 69.3215 69.2753 69.3215 69.6937C69.3215 69.9813 69.5612 70.2167 69.8543 70.2167C70.1473 70.2167 70.387 69.9813 70.387 69.6937C70.387 69.0736 70.2006 68.4722 69.8314 67.9044C68.8116 66.3318 66.7109 65.7229 64.8424 66.4588Z" fill="#191A1C"/>
<path d="M40.964 104.866H43.0527V109.516C42.4422 109.994 41.7284 110.361 40.9132 110.616C40.098 110.872 39.2608 111 38.3999 111C37.1889 111 36.0964 110.741 35.1239 110.225C34.1497 109.708 33.3869 108.994 32.8321 108.083C32.2774 107.172 32 106.144 32 105C32 103.856 32.2774 102.828 32.8321 101.917C33.3869 101.006 34.153 100.292 35.1323 99.7753C36.1116 99.259 37.2126 99 38.4354 99C39.4316 99 40.3365 99.161 41.1517 99.4831C41.9669 99.8052 42.6519 100.278 43.2066 100.899L41.8147 102.232C40.9081 101.344 39.8172 100.899 38.5386 100.899C37.7014 100.899 36.9572 101.072 36.3061 101.416C35.6549 101.759 35.1458 102.244 34.7788 102.865C34.4101 103.488 34.2275 104.198 34.2275 104.998C34.2275 105.777 34.4118 106.476 34.7788 107.099C35.1458 107.721 35.6566 108.209 36.3061 108.564C36.9572 108.92 37.6946 109.097 38.5217 109.097C39.4502 109.097 40.2654 108.898 40.9673 108.498V104.866H40.964Z" fill="#212529"/>
<path d="M47.5509 110.225C46.5767 109.708 45.8139 108.991 45.2591 108.075C44.7044 107.158 44.427 106.132 44.427 105C44.427 103.866 44.7044 102.842 45.2591 101.925C45.8139 101.009 46.5783 100.292 47.5509 99.7753C48.525 99.259 49.6159 99 50.8269 99C52.0379 99 53.1305 99.259 54.103 99.7753C55.0755 100.292 55.84 101.006 56.3947 101.917C56.9495 102.828 57.2268 103.856 57.2268 105C57.2268 106.144 56.9495 107.172 56.3947 108.083C55.84 108.994 55.0755 109.708 54.103 110.225C53.1288 110.741 52.0379 111 50.8269 111C49.6159 110.998 48.5234 110.741 47.5509 110.225ZM52.9664 108.574C53.6007 108.224 54.0979 107.736 54.4599 107.108C54.8218 106.481 55.0028 105.779 55.0028 105C55.0028 104.223 54.8218 103.519 54.4599 102.892C54.0979 102.264 53.599 101.774 52.9664 101.426C52.3322 101.075 51.6185 100.901 50.8269 100.901C50.0337 100.901 49.3217 101.075 48.6874 101.426C48.0532 101.776 47.5559 102.264 47.194 102.892C46.832 103.519 46.6511 104.223 46.6511 105C46.6511 105.779 46.832 106.481 47.194 107.108C47.5559 107.736 48.0549 108.226 48.6874 108.574C49.3217 108.925 50.0337 109.099 50.8269 109.099C51.6201 109.099 52.3322 108.925 52.9664 108.574Z" fill="#212529"/>
<path d="M66.5587 110.832L64.1316 107.416C64.0301 107.427 63.8762 107.432 63.6733 107.432H60.9909V110.832H58.7837V99.166H63.6733C64.7033 99.166 65.5997 99.332 66.3642 99.6657C67.1286 99.9994 67.7138 100.478 68.1214 101.099C68.529 101.721 68.732 102.46 68.732 103.315C68.732 104.193 68.5138 104.949 68.0792 105.581C67.6428 106.215 67.0187 106.687 66.2035 106.997L68.9367 110.831H66.5587V110.832ZM65.7604 101.6C65.2614 101.2 64.5325 101.001 63.5701 101.001H60.9892V105.651H63.5701C64.5325 105.651 65.2614 105.448 65.7604 105.043C66.2576 104.638 66.5079 104.062 66.5079 103.318C66.5079 102.571 66.2576 102 65.7604 101.6Z" fill="#212529"/>
<path d="M90.0672 110.666L87.6402 107.25C87.5387 107.261 87.3848 107.266 87.1818 107.266H84.4994V110.666H82.2922V99H87.1818C88.2118 99 89.1082 99.166 89.8727 99.4997C90.6372 99.8334 91.2224 100.312 91.63 100.932C92.0376 101.555 92.2405 102.294 92.2405 103.149C92.2405 104.027 92.0224 104.783 91.5877 105.415C91.1513 106.049 90.5272 106.521 89.712 106.831L92.4452 110.665H90.0672V110.666ZM89.2689 101.434C88.77 101.034 88.041 100.835 87.0787 100.835H84.4977V105.485H87.0787C88.041 105.485 88.77 105.282 89.2689 104.877C89.7662 104.472 90.0165 103.896 90.0165 103.152C90.0165 102.405 89.7662 101.834 89.2689 101.434Z" fill="#212529"/>
<path d="M72.6924 103.801H78.5788V106.401H72.6924V103.801Z" fill="#212529"/>
</svg>
